<svg width="34" height="34" viewBox="0 0 34 34" fill="none" xmlns="http://www.w3.org/2000/svg">
<mask id="mask0_2050_56808" style="mask-type:alpha" maskUnits="userSpaceOnUse" x="0" y="0" width="34" height="34">
<circle cx="17" cy="17" r="17" fill="#D9D9D9"/>
</mask>
<g mask="url(#mask0_2050_56808)">
<path d="M11.2508 23.7233C11.2841 23.8163 11.2454 23.9155 11.1648 23.9448L9.20284 24.6569C9.13 24.6833 9.04655 24.633 9.0162 24.5447L8.59617 23.3208C8.43386 22.8977 8.13179 22.6491 7.90058 22.7413L2.09854 25.1929C1.77611 25.3296 1.35198 24.9847 1.13138 24.4137C0.913228 23.8491 0.974622 23.261 1.2794 23.108L7.05288 20.209C7.27008 20.0765 7.32975 19.6459 7.18565 19.2112L6.78416 18.0415C6.75611 17.9598 6.78653 17.8633 6.85231 17.8257L8.61969 16.8153C8.69219 16.7739 8.77597 16.8095 8.80661 16.8951L11.2508 23.7233ZM32.0385 10.0462C33.4909 12.8417 33.7994 15.7296 32.4866 16.2158L23.9734 19.2966C23.0183 19.6426 21.3828 17.7799 20.3506 15.381C19.3184 12.982 19.1451 10.8024 20.0136 10.3028L27.31 6.14071C28.4847 5.47278 30.5479 7.177 32.0385 10.0462ZM28.8499 11.4525C28.3846 10.5203 27.6518 9.70472 27.198 9.93075L22.7779 12.1687C22.3998 12.3635 22.6001 13.3182 22.992 14.1848C23.384 15.0515 23.9868 15.8643 24.3876 15.6965L29.0517 13.7077C29.5288 13.5009 29.3152 12.3847 28.8499 11.4525ZM20.5246 17.5764C20.4787 17.4689 20.3607 17.4163 20.2614 17.4587L15.1281 19.6476L19.3396 16.0486C19.6118 15.792 19.5473 15.4483 19.4388 15.1653C19.4388 15.1653 19.2937 14.7727 19.2227 14.6066C18.2584 12.3516 15.7951 12.7134 14.453 13.4806L12.2798 14.723C11.1643 15.3607 9.65534 17.0638 10.3268 18.9167L10.4101 19.1501C10.4418 19.2377 10.5201 19.2837 10.585 19.2526L12.5719 18.2985C12.6432 18.2644 12.6729 18.2033 12.6385 18.0708C12.539 17.6526 12.8454 17.1959 13.2479 17.0009L15.5765 15.8224C15.8437 15.6871 16.1628 15.6261 16.5105 15.7307L11.9659 19.9705C11.4059 20.4927 11.247 21.456 11.5677 22.3412L11.9739 23.462C12.0072 23.554 12.09 23.6083 12.159 23.5833L21.474 20.2024C21.5774 20.1649 21.623 20.0445 21.5757 19.9338L20.5246 17.5764Z" fill="white"/>
<path d="M22.7246 27.9773L22.4074 21.2248L17.3579 27.4398L18.4632 22.7759L14.7073 23.9669L12.1459 26.4191L12.3159 24.7219L6.28605 26.6309L10.6234 26.6251L10.8534 29.6524L15.2768 25.3153L15.549 32L20.787 25.5088L22.4652 30.8755L26.8393 22.6279L26.3554 27.1874C28.9152 24.7618 30.0594 21.7429 30.3257 19.0177L24.3065 20.9259L22.7246 27.9773ZM11.834 13.6158L14.5345 5.22802L14.8229 11.7418L17.887 9.82056L19.3605 6.17272L19.4755 8.82451L24.9327 5.40278L20.5172 6.46437L19.9429 3.21489L16.4678 8.67787L15.0479 3L10.0322 11.5527C10.0322 11.5527 10.9482 6.26059 11.0113 6.01883C8.21881 7.42892 5.7361 10.0796 4.53927 13.6524L8.26039 10.246L3.73193 18.6967L11.834 13.6158Z" fill="#FF9100"/>
</g>
</svg>
